<?xml version="1.0" standalone="no"?><!DOCTYPE svg PUBLIC "-//W3C//DTD SVG 1.1//EN" "http://www.w3.org/Graphics/SVG/1.1/DTD/svg11.dtd"><svg t="1505960292520" class="icon" style="" viewBox="0 0 1024 1024" version="1.1" xmlns="http://www.w3.org/2000/svg" p-id="6515" xmlns:xlink="http://www.w3.org/1999/xlink" width="16" height="16"><defs><style type="text/css"></style></defs><path d="M448.34304 13.64992H129.92512l224.128 438.77888h318.42304z" fill="#3C8BFF" p-id="6516"></path><path d="M575.66208 13.64992L351.52384 452.4288h318.42304l224.13824-438.77888z" fill="#70AAFE" p-id="6517"></path><path d="M512.01536 235.8784c-213.87776 0-387.2512 173.36832-387.2512 387.2512 0 213.86752 173.36832 387.22048 387.2512 387.22048 213.85216 0 387.22048-173.34784 387.22048-387.22048 0-213.87776-173.36832-387.2512-387.22048-387.2512z m0 707.92192c-177.11104 0-320.70144-143.55968-320.70144-320.67072 0-177.1264 143.5904-320.70144 320.70144-320.70144 177.08032 0 320.67072 143.57504 320.67072 320.70144 0 177.11104-143.5904 320.67072-320.67072 320.67072z" fill="#DDDDDB" p-id="6518"></path><path d="M512.01536 302.42816c-177.11104 0-320.70144 143.57504-320.70144 320.70144 0 177.11104 143.5904 320.67072 320.70144 320.67072 177.08032 0 320.67072-143.55968 320.67072-320.67072 0-177.1264-143.5904-320.70144-320.67072-320.70144z m-0.01024 592.96256c-150.42048 0-272.28672-121.8816-272.28672-272.26112 0-150.39488 121.86624-272.29696 272.28672-272.29696 150.38976 0 272.26112 121.90208 272.26112 272.29696 0 150.37952-121.87136 272.26112-272.26112 272.26112z" fill="#878787" p-id="6519"></path><path d="M512.00512 350.83264c-150.42048 0-272.28672 121.90208-272.28672 272.29696 0 150.37952 121.86624 272.26112 272.28672 272.26112 150.38976 0 272.26112-121.8816 272.26112-272.26112 0-150.39488-121.87136-272.29696-272.26112-272.29696z m104.54016 386.85696v43.69408H396.50304v-31.21152c23.92064-43.69408 58.77248-82.176 104.56064-115.4816 45.76768-32.24064 67.61984-60.86656 65.54624-85.8368 0-31.21152-18.72384-46.81728-56.18176-46.81728-29.13792 1.0496-48.37376 18.72384-57.74336 53.05856l-49.93536-21.85216c19.74784-53.05856 57.73824-79.58528 113.92512-79.58528 64.49152 3.11808 98.82624 33.8176 102.99392 92.07296 5.1968 41.6256-21.33504 81.152-79.5904 118.6048-36.4288 27.06432-62.42304 51.50208-78.02368 73.344 64.49152 0.01024 115.98848 0.01024 154.49088 0.01024z" fill="#A3A3A3" p-id="6520"></path></svg>